<svg width="22" height="22" viewBox="0 0 22 22" fill="none" xmlns="http://www.w3.org/2000/svg">
<path d="M6.28584 2.24115C7.33267 3.00475 8.1484 4.04756 8.84585 5.04457L9.25103 5.63468L9.63325 6.19819C10.026 6.77265 9.93218 7.557 9.39868 8.01874L7.61015 9.34698C7.43288 9.4787 7.37393 9.71795 7.48026 9.91146C7.88492 10.6481 8.60584 11.7442 9.43085 12.5692C10.2567 13.3951 11.4046 14.1625 12.1919 14.6128C12.396 14.7295 12.6528 14.6619 12.7818 14.4653L13.9453 12.6929C14.3916 12.0992 15.2247 11.9695 15.8304 12.3887L16.4389 12.8091C17.5741 13.5974 18.7951 14.493 19.7276 15.6872C20.0407 16.0881 20.0872 16.6125 19.9005 17.0483C19.1334 18.8381 17.1923 20.3625 15.173 20.2881L14.8976 20.2728L14.684 20.2544L14.4477 20.2279L14.1896 20.1921L13.9107 20.1457C13.8625 20.137 13.8135 20.1278 13.7637 20.1181L13.4554 20.0534C13.4024 20.0415 13.3487 20.0291 13.2942 20.016L12.9587 19.9302L12.6062 19.8286L12.2377 19.7101C10.5453 19.1367 8.39769 18.0093 6.19424 15.8058C3.99077 13.6023 2.86335 11.4548 2.28996 9.7623L2.17145 9.39386L2.0699 9.04137L1.98405 8.70581L1.91262 8.38815C1.89107 8.28536 1.87172 8.18571 1.85434 8.08937L1.80793 7.81044L1.77213 7.55234L1.74565 7.31604L1.72723 7.1025L1.71191 6.82703C1.63786 4.81453 3.17951 2.8591 4.96114 2.09555C5.3792 1.91637 5.88555 1.94916 6.28584 2.24115ZM13.7424 5.53623L13.8487 5.54872C14.516 5.66637 15.1289 5.99224 15.5996 6.47961C16.0702 6.96699 16.3744 7.59085 16.4687 8.2618C16.5392 8.76313 16.1899 9.22662 15.6886 9.29711C15.2231 9.36256 14.7901 9.06604 14.6743 8.62195L14.6533 8.51694C14.6129 8.2294 14.4824 7.96203 14.2808 7.75316C14.1126 7.57909 13.9022 7.4531 13.6712 7.38675L13.5304 7.3542C13.0319 7.26629 12.699 6.79085 12.7869 6.29228C12.8685 5.82932 13.2843 5.50921 13.7424 5.53623ZM13.75 2.74999C14.4722 2.74999 15.1875 2.89225 15.8548 3.16865C16.5221 3.44505 17.1284 3.85018 17.6391 4.3609C18.1498 4.87162 18.555 5.47794 18.8314 6.14523C19.1077 6.81252 19.25 7.52772 19.25 8.24999C19.25 8.75625 18.8396 9.16666 18.3333 9.16666C17.8632 9.16666 17.4758 8.81278 17.4228 8.35689L17.4167 8.24999C17.4167 7.76848 17.3219 7.29168 17.1375 6.84682C16.9533 6.40195 16.6832 5.99775 16.3427 5.65726C16.0023 5.31679 15.5981 5.0467 15.1531 4.86243C14.7824 4.70887 14.3896 4.61742 13.9902 4.5912L13.75 4.58332C13.2437 4.58332 12.8333 4.17291 12.8333 3.66666C12.8333 3.1604 13.2437 2.74999 13.75 2.74999Z" fill="white"/>
</svg>
