<svg width="38" height="38" viewBox="0 0 38 38" fill="none" xmlns="http://www.w3.org/2000/svg">
<path d="M19 37.3921C18.3844 37.3973 17.7794 37.232 17.252 36.9144L10.6617 33.0601C8.19456 31.6803 6.13535 29.6737 4.69221 27.243C3.24907 24.8124 2.47315 22.0439 2.44287 19.2172V8.6858C2.44316 7.97612 2.66078 7.28355 3.06645 6.70124C3.47213 6.11894 4.04639 5.67483 4.71201 5.42866L17.8057 0.618945C18.5769 0.336654 19.4231 0.336654 20.1943 0.618945L33.288 5.42866C33.9536 5.67483 34.5279 6.11894 34.9336 6.70124C35.3392 7.28355 35.5569 7.97612 35.5572 8.6858V19.2172C35.5269 22.0439 34.7509 24.8124 33.3078 27.243C31.8647 29.6737 29.8055 31.6803 27.3383 33.0601L20.748 36.9144C20.2206 37.232 19.6156 37.3973 19 37.3921ZM19 3.12695C18.9139 3.11126 18.8256 3.11126 18.7394 3.12695L5.64573 7.95837C5.49824 8.01299 5.37168 8.11264 5.28399 8.2432C5.1963 8.37377 5.15193 8.52861 5.15716 8.6858V19.2172C5.18864 21.5692 5.84078 23.8711 7.0476 25.8901C8.25441 27.9091 9.97308 29.5735 12.0297 30.7149L18.62 34.5801C18.7365 34.6438 18.8672 34.6771 19 34.6771C19.1328 34.6771 19.2635 34.6438 19.38 34.5801L25.9703 30.7149C28.0269 29.5735 29.7456 27.9091 30.9524 25.8901C32.1592 23.8711 32.8114 21.5692 32.8429 19.2172V8.6858C32.8436 8.53228 32.7971 8.38226 32.7097 8.25604C32.6223 8.12981 32.4982 8.03349 32.3543 7.98009L19.2606 3.17037C19.1771 3.14012 19.0888 3.1254 19 3.12695Z" fill="white"/>
<path d="M17.8057 24.2656C17.4853 24.2635 17.1752 24.1525 16.9263 23.9508L12.2903 20.0422C12.0139 19.8104 11.8408 19.4783 11.8093 19.1189C11.7777 18.7595 11.8902 18.4023 12.122 18.1259C12.3538 17.8495 12.6859 17.6764 13.0453 17.6449C13.4047 17.6133 13.7619 17.7258 14.0383 17.9576L17.6754 21.0193L23.8857 14.1793C24.1276 13.9115 24.4659 13.7508 24.8263 13.7325C25.1867 13.7141 25.5396 13.8397 25.8074 14.0816C26.0752 14.3235 26.236 14.6618 26.2543 15.0222C26.2726 15.3826 26.147 15.7355 25.9051 16.0033L18.8697 23.8205C18.735 23.9671 18.5702 24.0828 18.3865 24.1596C18.2028 24.2365 18.0047 24.2726 17.8057 24.2656Z" fill="white"/>
</svg>
